<svg width="20" height="24" viewBox="0 0 20 24" fill="none" xmlns="http://www.w3.org/2000/svg">
    <path
        d="M19.5315 17.6177C19.5315 17.6712 19.5315 17.7248 19.5315 17.7784C19.4758 17.894 19.4116 18.0054 19.3655 18.1254C18.6842 19.9325 17.688 21.5446 16.364 22.9479C15.6346 23.7213 14.7305 24.1101 13.6604 23.9291C13.1944 23.8498 12.7499 23.6431 12.2936 23.5028C11.7869 23.3474 11.2845 23.1503 10.765 23.0636C9.78485 22.8997 8.86363 23.1653 7.97348 23.5692C7.34898 23.853 6.70199 24.0587 6.00357 23.9848C5.1552 23.8959 4.52213 23.4096 3.97261 22.8086C2.278 20.9544 1.10827 18.8078 0.474131 16.3751C0.000668304 14.5584 -0.192145 12.7224 0.243827 10.8746C0.810482 8.48049 2.18481 6.79017 4.59925 6.05105C5.97251 5.63115 7.26971 5.92251 8.51764 6.50416C9.44957 6.93906 10.3472 6.9969 11.277 6.51594C11.6059 6.34563 11.9711 6.24386 12.3214 6.11746C13.3647 5.74148 14.4295 5.68578 15.5103 5.92786C16.9179 6.24279 18.0587 6.95941 18.9049 8.16985C18.7764 8.26411 18.6714 8.34124 18.5664 8.41836C16.6361 9.84518 15.8627 12.1343 16.574 14.3741C17.0592 15.9059 18.1186 16.9257 19.5315 17.6177Z"
        fill="white" />
    <path
        d="M14.5688 0.00107121C14.6331 2.18521 13.759 3.87447 11.8844 5.01099C11.2492 5.39662 10.5465 5.59264 9.6853 5.51873C9.72708 5.06241 9.70994 4.60716 9.81813 4.18404C10.3794 1.9849 11.7784 0.612716 13.984 0.0685557C14.0472 0.052488 14.1061 0.023566 14.1671 0C14.3021 0.00107118 14.4349 0.00107121 14.5688 0.00107121Z"
        fill="white" />
</svg>