<svg width="25" height="24" viewBox="0 0 25 24" fill="none" xmlns="http://www.w3.org/2000/svg">
    <path
        d="M11.8482 15.4491C11.8482 18.3281 11.8482 21.1371 11.8482 23.9977C11.6661 23.9977 11.5098 23.9977 11.3536 23.9977C8.70969 23.9977 6.06575 23.9988 3.42182 23.9977C1.35968 23.9967 6.15471e-07 22.6314 6.15471e-07 20.5669C6.15471e-07 14.8176 6.15471e-07 9.06828 6.15471e-07 3.32005C-0.00107678 1.40828 1.41247 0 3.3324 0C9.12988 0 14.9274 0 20.7248 0C22.6006 0 24.0271 1.3986 24.0292 3.26411C24.0346 9.0941 24.0346 14.923 24.0292 20.753C24.0271 22.5776 22.6146 23.9859 20.7884 23.9956C19.2316 24.0042 17.6747 23.9977 16.1179 23.9967C15.9994 23.9967 15.8798 23.987 15.7214 23.9795C15.7117 23.8374 15.6945 23.7094 15.6945 23.5803C15.6945 21.0069 15.7042 18.4346 15.6912 15.8611C15.6891 15.5104 15.8141 15.434 16.134 15.4426C16.899 15.4609 17.6639 15.4502 18.4289 15.448C18.9978 15.4469 19.1734 15.2866 19.2348 14.7369C19.3221 13.9526 19.4136 13.1683 19.5085 12.3851C19.5742 11.8396 19.3598 11.5621 18.8092 11.5535C17.9376 11.5395 17.0638 11.5266 16.1922 11.5578C15.7753 11.5728 15.6632 11.4362 15.6837 11.0349C15.7171 10.3937 15.6869 9.74928 15.6945 9.10593C15.7063 8.10432 16.1577 7.62342 17.1576 7.5707C17.6532 7.54488 18.1499 7.56317 18.6465 7.55887C19.2165 7.55349 19.4007 7.37275 19.4029 6.81869C19.405 6.12154 19.4007 5.42547 19.4039 4.72833C19.405 4.35716 19.2197 4.11079 18.8599 4.11402C17.7092 4.12586 16.5424 4.07099 15.41 4.23452C13.517 4.50886 12.1962 5.90422 11.9688 7.81492C11.8395 8.89937 11.8762 10.0064 11.8751 11.1027C11.8751 11.4609 11.7706 11.5707 11.4204 11.5535C10.8979 11.5287 10.3743 11.5406 9.85066 11.5502C9.31627 11.5599 9.0857 11.7783 9.08462 12.3152C9.08355 13.1726 9.10079 14.029 9.12557 14.8864C9.13634 15.2716 9.33889 15.4426 9.758 15.4459C10.4421 15.4534 11.1241 15.4491 11.8482 15.4491Z"
        fill="white" />
</svg>