<svg width="24" height="24" viewBox="0 0 24 24" fill="none" xmlns="http://www.w3.org/2000/svg">
    <path fill-rule="evenodd" clip-rule="evenodd"
        d="M1.29346 6.61976C1.7827 5.54328 2.47436 4.60346 3.2859 3.75324C5.12106 1.82913 7.34363 0.597307 9.97422 0.177032C13.6561 -0.410839 16.9513 0.456786 19.7991 2.90882C19.979 3.06353 20.0234 3.15441 19.8281 3.34586C18.8232 4.33016 17.8338 5.33057 16.8385 6.32518C16.7367 6.42702 16.6677 6.55143 16.4866 6.38577C13.9797 4.08843 9.8872 4.11486 7.22309 6.59268C6.30841 7.44355 5.65801 8.46265 5.23258 9.6313C5.1707 9.59069 5.10495 9.55459 5.04629 9.50947C3.79449 8.54645 2.54397 7.58278 1.29346 6.61976Z"
        fill="#CA0024" />
    <path fill-rule="evenodd" clip-rule="evenodd"
        d="M5.20185 14.3228C5.56153 15.2355 6.00759 16.0986 6.67152 16.8315C8.35907 18.6957 10.4514 19.4995 12.9576 19.2391C14.1224 19.1179 15.1834 18.7234 16.1748 18.1175C16.2702 18.2026 16.3604 18.2935 16.461 18.3721C17.6213 19.2778 18.7835 20.1821 19.9444 21.0865C18.6636 22.3028 17.1513 23.1124 15.4503 23.5424C11.4396 24.5563 7.74284 23.9156 4.45992 21.325C3.10305 20.2537 2.03496 18.931 1.28271 17.3652C2.58931 16.3513 3.8959 15.3367 5.20185 14.3228Z"
        fill="#27AE60" />
    <path fill-rule="evenodd" clip-rule="evenodd"
        d="M19.9443 21.0873C18.7827 20.1829 17.6211 19.2786 16.4609 18.3729C16.3603 18.2943 16.2701 18.2034 16.1747 18.1183C16.9611 17.5182 17.6173 16.8085 18.0479 15.9067C18.22 15.547 18.3405 15.1706 18.4546 14.7903C18.5332 14.5279 18.5088 14.4261 18.1845 14.4286C16.2514 14.4448 14.3182 14.437 12.3851 14.4364C11.9758 14.4364 11.9751 14.4364 11.9751 14.0129C11.9751 12.7024 11.9816 11.3926 11.9693 10.0821C11.9668 9.82946 12.0112 9.73212 12.2962 9.73341C15.8614 9.74372 19.4273 9.74179 22.9926 9.73664C23.1853 9.73664 23.3058 9.75082 23.3393 9.9848C23.7828 13.1034 23.4277 16.0827 21.7949 18.8351C21.2966 19.6769 20.6959 20.4466 19.9443 21.0873Z"
        fill="#5D7FBE" />
    <path fill-rule="evenodd" clip-rule="evenodd"
        d="M5.20198 14.3225C3.89603 15.3365 2.58944 16.3504 1.28349 17.365C0.645337 16.179 0.277917 14.9052 0.10581 13.578C-0.191348 11.2788 0.135463 9.06651 1.11074 6.9574C1.16424 6.84137 1.23192 6.73243 1.29315 6.61963C2.54367 7.58265 3.79418 8.54632 5.04534 9.5087C5.104 9.55382 5.1691 9.58992 5.23163 9.63053C4.70757 11.1917 4.73336 12.7555 5.20198 14.3225Z"
        fill="#F2C94C" />
</svg>